<svg t="1709643881633" class="icon" viewBox="0 0 1024 1024" version="1.1" xmlns="http://www.w3.org/2000/svg" p-id="1534" width="16" height="16"><path d="M865.174679 165.778839L635.214002 32.99284a246.573474 246.573474 0 0 0-246.428004 0L158.767133 165.778839A246.509467 246.509467 0 0 0 35.582225 379.214002v265.571996c0 88.039095 46.958063 169.386521 123.184908 213.376975L388.785998 990.948971a246.573474 246.573474 0 0 0 246.428004 0l230.018865-132.785998a246.346539 246.346539 0 0 0 123.184908-213.376975V379.214002c0-88.039095-46.958063-169.386521-123.184908-213.376975z m-45.270599 232.171837L554.913967 549.182407v299.263098c0 24.09001-19.551313 43.641323-43.641322 43.641323s-43.641323-19.551313-43.641323-43.641323V548.367769l-263.59359-150.417093c-20.947835-11.928628-28.221389-38.578929-16.292761-59.526764 11.928628-20.947835 38.578929-28.221389 59.526764-16.292761l264.699171 151.057166 264.69917-151.057166c20.947835-11.928628 47.598136-4.655074 59.526765 16.292761 11.928628 20.947835 4.655074 47.598136-16.292761 59.526764z" p-id="1535"></path></svg>